<svg id="Layer_1" data-name="Layer 1" xmlns="http://www.w3.org/2000/svg" viewBox="0 0 720 271.09"><defs><style>.cls-1{fill:#fff;}</style></defs><title>santika-indonesia-hotels-resorts-plain-white</title><path class="cls-1" d="M18.74,260.82a28.12,28.12,0,0,0,6.79,5.83,13.21,13.21,0,0,0,6.67,1.93,7.65,7.65,0,0,0,5.08-1.66,5.26,5.26,0,0,0,2-4.21,5.52,5.52,0,0,0-1.72-4.35q-1.72-1.53-7.77-3.15Q21.44,253,18,249.37t-3.44-9.86A17.39,17.39,0,0,1,20,226.26q5.44-5.12,14.11-5.13A30.83,30.83,0,0,1,43,222.39a28.8,28.8,0,0,1,8,3.81l-4.84,11.09a20.32,20.32,0,0,0-5.39-3.38,14.29,14.29,0,0,0-5.47-1.14,7.25,7.25,0,0,0-4.52,1.33A4.13,4.13,0,0,0,29,237.53a4.23,4.23,0,0,0,1.53,3.4q1.52,1.27,5.88,2.43l.69.19q9.45,2.56,12.43,5.61a13.81,13.81,0,0,1,3.06,5,19.12,19.12,0,0,1,1,6.48q0,9-5.92,14.49t-15.79,5.47a28,28,0,0,1-10.77-2,30.42,30.42,0,0,1-9.34-6.32l7-11.47Z" transform="translate(-11.77 -96.36)"/><path class="cls-1" d="M91,259.55a10.31,10.31,0,0,0-2.44-7.23A8.54,8.54,0,0,0,82,249.65a8.51,8.51,0,0,0-6.63,2.65,10.34,10.34,0,0,0-2.42,7.25,10.19,10.19,0,0,0,2.43,7.19A8.58,8.58,0,0,0,82,269.37a8.62,8.62,0,0,0,6.65-2.63A10.17,10.17,0,0,0,91,259.55m12.13-19.49v39.05H90.5v-6.34a18.12,18.12,0,0,1-6.09,6,16,16,0,0,1-7.95,1.89A15.34,15.34,0,0,1,64,274.91q-4.68-5.7-4.68-15.3t4.89-15.18q4.89-5.63,13.17-5.63a14.69,14.69,0,0,1,7.6,1.88,15.68,15.68,0,0,1,5.47,5.8v-6.42Z" transform="translate(-11.77 -96.36)"/><path class="cls-1" d="M113.59,279.12V240.07h12.62V248a19.08,19.08,0,0,1,6.34-7,16.13,16.13,0,0,1,8.62-2.21,17.55,17.55,0,0,1,6.74,1.22,11.87,11.87,0,0,1,4.81,3.5,12,12,0,0,1,2.2,4.8,39.94,39.94,0,0,1,.66,8.44v22.36H141.79V258.19q0-4.68-1.52-6.81a5.61,5.61,0,0,0-4.89-2.13,6.83,6.83,0,0,0-6.27,3.17q-2,3.17-2,10.29v16.41Z" transform="translate(-11.77 -96.36)"/><path class="cls-1" d="M193.05,227.87a7.22,7.22,0,0,1,2.22-5.33,7.77,7.77,0,0,1,10.8,0,7.24,7.24,0,0,1,2.19,5.37,7.45,7.45,0,0,1-2.22,5.45,7.34,7.34,0,0,1-5.4,2.23,7.25,7.25,0,0,1-5.34-2.28,7.44,7.44,0,0,1-2.24-5.4m.71,12.2h13.79v39.05H193.76V240.07Z" transform="translate(-11.77 -96.36)"/><polygon class="cls-1" points="206.35 182.76 206.35 122.79 219.9 122.79 219.9 160.76 234.09 143.71 251.19 143.71 233.63 162.5 252.77 182.76 234.63 182.76 219.9 165.4 219.9 182.76 206.35 182.76 206.35 182.76"/><path class="cls-1" d="M297.38,259.55a10.3,10.3,0,0,0-2.44-7.23,9.61,9.61,0,0,0-13.27,0,10.34,10.34,0,0,0-2.42,7.25,10.19,10.19,0,0,0,2.43,7.19,9.67,9.67,0,0,0,13.26,0,10.16,10.16,0,0,0,2.44-7.19m12.14-19.49v39.05H296.84v-6.34a18.12,18.12,0,0,1-6.09,6,16,16,0,0,1-7.95,1.89,15.33,15.33,0,0,1-12.49-5.71q-4.68-5.7-4.68-15.3t4.89-15.18q4.89-5.63,13.17-5.63a14.68,14.68,0,0,1,7.6,1.88,15.62,15.62,0,0,1,5.47,5.8v-6.42Z" transform="translate(-11.77 -96.36)"/><polygon class="cls-1" points="334.36 126.12 349.96 126.12 349.96 182.76 334.36 182.76 334.36 126.12 334.36 126.12"/><path class="cls-1" d="M373.17,279.12V240.07h12.62V248a19.11,19.11,0,0,1,6.34-7,16.12,16.12,0,0,1,8.62-2.21,17.54,17.54,0,0,1,6.74,1.22,11.88,11.88,0,0,1,4.81,3.5,12,12,0,0,1,2.2,4.8,40,40,0,0,1,.66,8.44v22.36H401.38V258.19q0-4.68-1.53-6.81a5.61,5.61,0,0,0-4.89-2.13,6.83,6.83,0,0,0-6.26,3.17q-2,3.17-2,10.29v16.41Z" transform="translate(-11.77 -96.36)"/><path class="cls-1" d="M454.78,259.63a10.24,10.24,0,0,0-2.41-7.19,9.54,9.54,0,0,0-13.15,0,12.06,12.06,0,0,0,0,14.4,9.59,9.59,0,0,0,13.17,0,10.25,10.25,0,0,0,2.41-7.2M467,219.15v60H454.31v-6.34a18.69,18.69,0,0,1-5.92,5.89,14,14,0,0,1-7.31,2q-8.24,0-13.11-5.69t-4.87-15.32q0-9.32,4.85-15.07a15.79,15.79,0,0,1,12.66-5.75,16.13,16.13,0,0,1,8.06,1.78,15.76,15.76,0,0,1,5.54,6q-.23-1.4-.34-3.16c-.08-1.18-.12-2.45-.12-3.82V219.15Z" transform="translate(-11.77 -96.36)"/><path class="cls-1" d="M505,259.69a10.1,10.1,0,0,0-2.2-6.89,8.33,8.33,0,0,0-11.93,0,12,12,0,0,0,0,13.76,8.43,8.43,0,0,0,12,0,10.1,10.1,0,0,0,2.18-6.87m13.7,0a19.89,19.89,0,0,1-1.64,8,21.12,21.12,0,0,1-4.78,6.81,22,22,0,0,1-7.1,4.57,23.45,23.45,0,0,1-16.76,0,21.16,21.16,0,0,1-7-4.57A20.18,20.18,0,0,1,475,259.69a20.9,20.9,0,0,1,13.33-19.38,24.35,24.35,0,0,1,16.89,0,21.51,21.51,0,0,1,11.81,11.33,20.21,20.21,0,0,1,1.62,8" transform="translate(-11.77 -96.36)"/><path class="cls-1" d="M526.6,279.12V240.07h12.62V248a19.13,19.13,0,0,1,6.34-7,16.14,16.14,0,0,1,8.62-2.21,17.54,17.54,0,0,1,6.74,1.22,11.89,11.89,0,0,1,4.82,3.5,12.12,12.12,0,0,1,2.2,4.8,40.24,40.24,0,0,1,.66,8.44v22.36H554.81V258.19q0-4.68-1.53-6.81a5.61,5.61,0,0,0-4.89-2.13,6.83,6.83,0,0,0-6.26,3.17q-2,3.17-2,10.29v16.41Z" transform="translate(-11.77 -96.36)"/><path class="cls-1" d="M605.3,254.56a8.39,8.39,0,0,0-2.54-5.35,7.44,7.44,0,0,0-5.29-2A7.59,7.59,0,0,0,592.1,249a9.54,9.54,0,0,0-2.66,5.53Zm13.55,7.76H589.14q0,4.53,2.33,7a8.39,8.39,0,0,0,6.47,2.45,10.85,10.85,0,0,0,5.29-1.18,7.67,7.67,0,0,0,3.27-3.49l10.37,4.17a13.49,13.49,0,0,1-6.58,6.93,24.94,24.94,0,0,1-11.58,2.44q-10.22,0-16.39-5.67t-6.17-15a20.34,20.34,0,0,1,6.17-15.17,21.41,21.41,0,0,1,15.61-6q9.71,0,15.31,6.12t5.61,16.75v.66Z" transform="translate(-11.77 -96.36)"/><path class="cls-1" d="M623.14,275.87,626,265.33a22.4,22.4,0,0,0,6.63,4,19.91,19.91,0,0,0,7.3,1.42,7.55,7.55,0,0,0,3.95-.84,2.67,2.67,0,0,0,1.35-2.42q0-2.59-5.47-3.87c-1.19-.28-2.14-.53-2.87-.73q-6.18-1.7-9-4.47a9.65,9.65,0,0,1-2.8-7.18,11,11,0,0,1,4.28-9.09q4.28-3.41,11.58-3.41a34.49,34.49,0,0,1,7.64.88,41.86,41.86,0,0,1,7.95,2.69l-2.86,9.51a23.52,23.52,0,0,0-5.58-2.83,17.27,17.27,0,0,0-5.65-1,6.92,6.92,0,0,0-3.56.74,2.36,2.36,0,0,0-1.2,2.13q0,2.09,5.43,3.52c.82.24,1.45.4,1.86.51q7.15,2.05,9.95,4.81a10,10,0,0,1,2.8,7.48,11.82,11.82,0,0,1-4.6,9.68q-4.6,3.69-12.18,3.69a37,37,0,0,1-9.56-1.18,30.79,30.79,0,0,1-8.28-3.58" transform="translate(-11.77 -96.36)"/><path class="cls-1" d="M664.87,227.87a7.21,7.21,0,0,1,2.23-5.33,7.34,7.34,0,0,1,5.36-2.2,7.43,7.43,0,0,1,5.44,2.16,7.25,7.25,0,0,1,2.19,5.37,7.45,7.45,0,0,1-2.23,5.45,7.34,7.34,0,0,1-5.4,2.23,7.24,7.24,0,0,1-5.34-2.28,7.43,7.43,0,0,1-2.25-5.4m.71,12.2h13.78v39.05H665.59V240.07Z" transform="translate(-11.77 -96.36)"/><path class="cls-1" d="M719.64,259.55a10.31,10.31,0,0,0-2.44-7.23,9.61,9.61,0,0,0-13.28,0,10.37,10.37,0,0,0-2.42,7.25,10.18,10.18,0,0,0,2.44,7.19,9.67,9.67,0,0,0,13.26,0,10.17,10.17,0,0,0,2.44-7.19m12.13-19.49v39.05H719.1v-6.34a18.08,18.08,0,0,1-6.09,6,16,16,0,0,1-7.95,1.89,15.33,15.33,0,0,1-12.49-5.71q-4.68-5.7-4.68-15.3t4.9-15.18q4.89-5.63,13.17-5.63a14.65,14.65,0,0,1,7.6,1.88,15.61,15.61,0,0,1,5.48,5.8v-6.42Z" transform="translate(-11.77 -96.36)"/><path class="cls-1" d="M415.18,173.87a37.78,37.78,0,0,1-12.54-2.17c-4.25-1.52-7.17-3.35-8.47-5.17-4.29-5.87-4.82-8.2-4.82-15.81,0-2.43,1.84-6.34,1.84-6.34,1.08-1.92,9-8.3,17.2-3.28,8.16,6.09-1.81,13.22-6.29,6.53C400.39,154,406.68,160,414.64,160c11.62,0,12.73-22.75-2.89-24.8-1.36-.12-11.93-.63-11.93-6.18,15.36-13.57-7.93-16.54-4.16-25,4.29-4.41,13.27-7.66,19.52-7.66a35.34,35.34,0,0,1,8,.95c2.19.5,9.11,3.47,11.3,5.27.83-.25,3.11-5.58,8-4.32,2.92.79,5.49,6.75,6.28,18.36-.35,4.77-2.79,5.9-4.72,6-3.85-.06-3.85-3.81-11.18-9.11-6-3.82-8.6-5.71-15.2-5.36-2.79.16-5.43,2.84-5.11,5.55.57,5.33,5.3,7.77,12,11.8,6.38,2.91,18,8.74,18,22.3,0,8-2,14.07-7,18.77s-12.06,7.35-20.29,7.35" transform="translate(-11.77 -96.36)"/><path class="cls-1" d="M322,168.47c.44-3.53,9.08-5.21,7.9-14.79-.07-3.16.1-8.42.1-15.21,0-8.49-.19-15.43-.13-18.9s-.57-5-1.11-6c-6.07-11.14-26,.47-23.58,12.21.47,2.46,1.17,4.23,2.86,5.24a6.13,6.13,0,0,1,3.2-3.28c10-2.43,14.7,16.62-.82,16.78,0,0-13.56-.63-11.59-18.64,2.86-18.39,19.36-25.3,30.92-25,5.49.16,14.06.06,19.11,0,4.63-.35,9.93,2.9,5.9,7.35-.51.57-6,1.55-6,5.18,0,2,0,6.82,0,9.49s.83,6,3.39,6H363c1.52,0,2.83-3.28,2.83-6.37v-9.15a5.48,5.48,0,0,0-3.33-4.7c-5.39-4,.51-8.33,4.92-7.82,2.45,0,3,0,9.46,0,5.52,0,10.31,0,12.7,0,4.44-.47,7,3.35,6.25,5.36,0,5-6.5,7.16-6.5,7.16-2.51.44-9.18,3.69-10.92,9.18-.86,2.68,3.23,11.83,10.89,3.25-1,14.29-20.51-1.92-21.91,15.46-.09,7.1,4.89,9.72,9.56,9.28-3.75-4.42-3.75-10.79,3.11-10.79,1.9,0,6.44,1.77,5,4.77-3.3,6-4.06,7.82-4.1,15.55,0,0,0,4.8,2,8.14.86,2.15-1.74,4.07-9.24,4.07-1.71,0-9.17.54-12.5-1.58-4.38-4.17,5.11-6.69,4.63-10.89V146.77c0-2.65-1.59-5.52-3.65-5.49-.44,0-1.52,0-4,0-1.74,0-4.63-.06-6.38.09-3.11,1-3.08,5.33-3.08,6.15,0,3.22,0,10.69,0,12.53.26,4.89,7.17,6.84,3.24,10.63-2.29,1.77-5.37,1.67-12.51,1.67-5,0-10,0-11.81,0-5.78,0-5.58-2.68-5.58-3.88" transform="translate(-11.77 -96.36)"/><path class="cls-1" d="M188.43,250.23v-8.31h-10V228.59H165.24v13.34h-5.4v8.31h5.4v17.19c0,10.27,7.57,15.59,20.6,12.1l-.72-9c-1.92,1-6.68,1.83-6.68-2.61v-17.7Z" transform="translate(-11.77 -96.36)"/><path class="cls-1" d="M141.84,344.72V329.64h-4.14v37.17h4.14V348.57h19v18.24H165V329.64h-4.14v15.09ZM192.66,329A19.23,19.23,0,1,0,212,348.27,19.39,19.39,0,0,0,192.66,329Zm0,3.84a15.38,15.38,0,1,1-15.23,15.38,15.28,15.28,0,0,1,15.23-15.38Zm37.32.64h9.07v-3.84H216.87v3.84h9v33.33H230V333.48Zm15.78,33.33H265V363H249.9V348.37h14.69v-3.85H249.9v-11H265v-3.84H245.76v37.17Zm32.93-37.17h-4.14v37.17h14.4V363H278.69V329.64Zm37,5.13a10.67,10.67,0,0,0-9.61-5.77c-5.52,0-10.4,3.7-10.4,9.46,0,5.33,3.75,7.54,8.08,9.52l2.27,1c3.45,1.58,6.85,3.06,6.85,7.4a7.47,7.47,0,0,1-7.64,7.25,7.66,7.66,0,0,1-7.44-6.9l-4,1.13A11.73,11.73,0,0,0,317,356c0-5.92-4.09-8.33-8.92-10.45l-2.47-1.08c-2.51-1.13-5.82-2.61-5.82-5.82a5.9,5.9,0,0,1,6.16-5.77c3.15,0,4.93,1.48,6.41,4l3.3-2.12Zm38.65,7.79-.89-1.23c-1-1.48-2.27-2.86-2.27-4.73a4.05,4.05,0,0,1,4.09-4.09,3.85,3.85,0,0,1,4,3.8c0,3-2.51,4.39-4.63,6l-.35.25Zm13.76,24.26h5.23L367,358.68l4.73-5.52-3-2.47-4.19,4.88-7.84-10c3.2-2.42,6.56-4.83,6.56-9.27s-3.7-7.3-7.89-7.3c-4.63,0-8.13,3.2-8.13,7.89,0,3.06,2,5.57,3.7,7.89l-.44.3c-4.64,3.06-9.12,6-9.12,12.23,0,5.92,5.18,10.16,10.85,10.16,4.63,0,8.58-2.91,11.88-5.87l4,5.23Zm-14.74-19,8.28,10.65c-2.66,2.32-5.92,5.23-9.66,5.23a6.85,6.85,0,0,1-6.56-6.7c0-3.8,3.35-6.06,6.16-8l1.77-1.18Zm48.36-14.35h1.23c5,0,9.47.59,9.47,6.71,0,5.77-4.73,6.66-9.42,6.66H401.7V333.48Zm0,17h1L414,366.81h5.08l-11.83-16.66c5.72-.49,9.32-4.54,9.32-10.25,0-8.38-6.56-10.25-13.61-10.25h-5.37v37.17h4.14V350.49Zm25,16.32H446V363H430.88V348.37h14.69v-3.85H430.88v-11H446v-3.84H426.74v37.17Zm49-32a10.67,10.67,0,0,0-9.61-5.77c-5.52,0-10.4,3.7-10.4,9.46,0,5.33,3.75,7.54,8.08,9.52l2.27,1c3.45,1.58,6.85,3.06,6.85,7.4a7.47,7.47,0,0,1-7.64,7.25,7.66,7.66,0,0,1-7.44-6.9l-4,1.13A11.73,11.73,0,0,0,477,356c0-5.92-4.09-8.33-8.92-10.45l-2.46-1.08c-2.51-1.13-5.82-2.61-5.82-5.82a5.9,5.9,0,0,1,6.16-5.77c3.16,0,4.93,1.48,6.41,4l3.3-2.12ZM503.06,329a19.23,19.23,0,1,0,19.38,19.28A19.39,19.39,0,0,0,503.06,329Zm0,3.84a15.38,15.38,0,1,1-15.23,15.38,15.28,15.28,0,0,1,15.23-15.38Zm31.6.64h1.23c5,0,9.47.59,9.47,6.71,0,5.77-4.73,6.66-9.42,6.66h-1.28V333.48Zm0,17h1l11.24,16.32H552l-11.83-16.66c5.72-.49,9.32-4.54,9.32-10.25,0-8.38-6.56-10.25-13.61-10.25h-5.37v37.17h4.14V350.49Zm33.92-17h9.07v-3.84H555.47v3.84h9v33.33h4.14V333.48Zm35.94,1.28a10.67,10.67,0,0,0-9.61-5.77c-5.52,0-10.4,3.7-10.4,9.46,0,5.33,3.75,7.54,8.09,9.52l2.27,1c3.45,1.58,6.85,3.06,6.85,7.4a7.47,7.47,0,0,1-7.64,7.25,7.66,7.66,0,0,1-7.45-6.9l-4,1.13A11.73,11.73,0,0,0,605.85,356c0-5.92-4.09-8.33-8.92-10.45l-2.47-1.08c-2.51-1.13-5.82-2.61-5.82-5.82a5.9,5.9,0,0,1,6.16-5.77c3.15,0,4.93,1.48,6.41,4l3.3-2.12Z" transform="translate(-11.77 -96.36)"/><path class="cls-1" d="M141.84,344.72V329.64h-4.14v37.17h4.14V348.57h19v18.24H165V329.64h-4.14v15.09ZM192.66,329A19.23,19.23,0,1,0,212,348.27,19.39,19.39,0,0,0,192.66,329Zm0,3.84a15.38,15.38,0,1,1-15.23,15.38,15.28,15.28,0,0,1,15.23-15.38Zm37.32.64h9.07v-3.84H216.87v3.84h9v33.33H230V333.48Zm15.78,33.33H265V363H249.9V348.37h14.69v-3.85H249.9v-11H265v-3.84H245.76v37.17Zm32.93-37.17h-4.14v37.17h14.4V363H278.69V329.64Zm37,5.13a10.67,10.67,0,0,0-9.61-5.77c-5.52,0-10.4,3.7-10.4,9.46,0,5.33,3.75,7.54,8.08,9.52l2.27,1c3.45,1.58,6.85,3.06,6.85,7.4a7.47,7.47,0,0,1-7.64,7.25,7.66,7.66,0,0,1-7.44-6.9l-4,1.13A11.73,11.73,0,0,0,317,356c0-5.92-4.09-8.33-8.92-10.45l-2.47-1.08c-2.51-1.13-5.82-2.61-5.82-5.82a5.9,5.9,0,0,1,6.16-5.77c3.15,0,4.93,1.48,6.41,4l3.3-2.12Zm38.65,7.79-.89-1.23c-1-1.48-2.27-2.86-2.27-4.73a4.05,4.05,0,0,1,4.09-4.09,3.85,3.85,0,0,1,4,3.8c0,3-2.51,4.39-4.63,6l-.35.25Zm13.76,24.26h5.23L367,358.68l4.73-5.52-3-2.47-4.19,4.88-7.84-10c3.2-2.42,6.56-4.83,6.56-9.27s-3.7-7.3-7.89-7.3c-4.63,0-8.13,3.2-8.13,7.89,0,3.06,2,5.57,3.7,7.89l-.44.3c-4.64,3.06-9.12,6-9.12,12.23,0,5.92,5.18,10.16,10.85,10.16,4.63,0,8.58-2.91,11.88-5.87l4,5.23Zm-14.74-19,8.28,10.65c-2.66,2.32-5.92,5.23-9.66,5.23a6.85,6.85,0,0,1-6.56-6.7c0-3.8,3.35-6.06,6.16-8l1.77-1.18Zm48.36-14.35h1.23c5,0,9.47.59,9.47,6.71,0,5.77-4.73,6.66-9.42,6.66H401.7V333.48Zm0,17h1L414,366.81h5.08l-11.83-16.66c5.72-.49,9.32-4.54,9.32-10.25,0-8.38-6.56-10.25-13.61-10.25h-5.37v37.17h4.14V350.49Zm25,16.32H446V363H430.88V348.37h14.69v-3.85H430.88v-11H446v-3.84H426.74v37.17Zm49-32a10.67,10.67,0,0,0-9.61-5.77c-5.52,0-10.4,3.7-10.4,9.46,0,5.33,3.75,7.54,8.08,9.52l2.27,1c3.45,1.58,6.85,3.06,6.85,7.4a7.47,7.47,0,0,1-7.64,7.25,7.66,7.66,0,0,1-7.44-6.9l-4,1.13A11.73,11.73,0,0,0,477,356c0-5.92-4.09-8.33-8.92-10.45l-2.46-1.08c-2.51-1.13-5.82-2.61-5.82-5.82a5.9,5.9,0,0,1,6.16-5.77c3.16,0,4.93,1.48,6.41,4l3.3-2.12ZM503.06,329a19.23,19.23,0,1,0,19.38,19.28A19.39,19.39,0,0,0,503.06,329Zm0,3.84a15.38,15.38,0,1,1-15.23,15.38,15.28,15.28,0,0,1,15.23-15.38Zm31.6.64h1.23c5,0,9.47.59,9.47,6.71,0,5.77-4.73,6.66-9.42,6.66h-1.28V333.48Zm0,17h1l11.24,16.32H552l-11.83-16.66c5.72-.49,9.32-4.54,9.32-10.25,0-8.38-6.56-10.25-13.61-10.25h-5.37v37.17h4.14V350.49Zm33.92-17h9.07v-3.84H555.47v3.84h9v33.33h4.14V333.48Zm35.94,1.28a10.67,10.67,0,0,0-9.61-5.77c-5.52,0-10.4,3.7-10.4,9.46,0,5.33,3.75,7.54,8.09,9.52l2.27,1c3.45,1.58,6.85,3.06,6.85,7.4a7.47,7.47,0,0,1-7.64,7.25,7.66,7.66,0,0,1-7.45-6.9l-4,1.13A11.73,11.73,0,0,0,605.85,356c0-5.92-4.09-8.33-8.92-10.45l-2.47-1.08c-2.51-1.13-5.82-2.61-5.82-5.82a5.9,5.9,0,0,1,6.16-5.77c3.15,0,4.93,1.48,6.41,4l3.3-2.12Z" transform="translate(-11.77 -96.36)"/></svg>